<svg xmlns="http://www.w3.org/2000/svg" viewBox="0 0 123.78 128.54"><title>community-active</title><path d="M103.15,4.62c6.8-2.3,12.1-2.2,15.1.6,9.4,9-8.2,42.7-39.3,75.3s-64,51.8-73.4,42.8c-4.7-4.5-2.7-15,4.3-28.5" fill="none" stroke="#fff" stroke-linecap="round" stroke-miterlimit="10" stroke-width="6"/><path d="M61.65,2A61.3,61.3,0,1,0,123,63.32,61.31,61.31,0,0,0,61.65,2Zm-29,79.5a4.9,4.9,0,1,1,4.9-4.9A4.91,4.91,0,0,1,32.65,81.52Zm27.1-36.7a9.8,9.8,0,1,1,9.8-9.8A9.69,9.69,0,0,1,59.75,44.82Zm27.7,59.4a3.8,3.8,0,1,1,3.8-3.8A3.8,3.8,0,0,1,87.45,104.22Z" fill="#fff"/></svg>