<svg xmlns="http://www.w3.org/2000/svg" xmlns:xlink="http://www.w3.org/1999/xlink" viewBox="0 0 716.3 650.21"><defs><clipPath id="a" transform="translate(-1.38 -0.85)"><rect width="718" height="653" fill="none"/></clipPath></defs><title>test_comment</title><g clip-path="url(#a)"><path d="M560.24,337.37a68.51,68.51,0,1,1,68.51-68.51,68.51,68.51,0,0,1-68.51,68.51m-201.91,0a68.51,68.51,0,1,1,68.51-68.51A68.51,68.51,0,0,1,358.33,337.37Zm-201.91,0a68.51,68.51,0,1,1,68.51-68.51A68.51,68.51,0,0,1,156.42,337.37ZM628.11.85H90.91A89.48,89.48,0,0,0,1.38,90.29V448.42a89.5,89.5,0,0,0,89.53,89.44h175.8l92.8,113.2,92.55-113.2h176a89.52,89.52,0,0,0,89.57-89.44V90.29A89.5,89.5,0,0,0,628.11.85Z" transform="translate(-1.38 -0.85)" fill-rule="evenodd"/></g></svg>