<svg xmlns="http://www.w3.org/2000/svg" viewBox="0 0 116.8 135.2"><title>index</title><path d="M58.3,37.7,71,63.3l1.4,2.8,3.1.5,28.3,4.1-20.5,20L81,92.9l.5,3.1,4.8,28.2L61,110.9l-2.8-1.5-2.8,1.5L30.1,124.2,34.9,96l.5-3.1-2.3-2.2-20.5-20,28.3-4.1,3.1-.5,1.4-2.8L58.3,37.7m0-13.5-18,36.5L0,66.6,29.2,95l-6.9,40.2,36.1-19,36.1,19L87.6,95l29.2-28.4L76.5,60.7,58.3,24.2Z" fill="#fff"/><polygon points="16.1 0 10.1 0 10.1 48 16.1 48 16.1 0" fill="#fff"/><polygon points="103.6 0 97.6 0 97.6 48 103.6 48 103.6 0" fill="#fff"/><polygon points="61.3 0 55.3 0 55.3 18 61.3 18 61.3 0" fill="#fff"/></svg>