<svg xmlns="http://www.w3.org/2000/svg" viewBox="0 0 102.8 132.7"><title>list-active</title><polyline points="65.5 10.6 79.6 10.6 79.6 37.9 24.2 37.9 24.2 10.6 39.3 10.6" fill="#fff" stroke="#fff" stroke-miterlimit="10" stroke-width="6"/><path d="M35.4,12.3a18.59,18.59,0,0,1,32.2,0" fill="#fff" stroke="#fff" stroke-miterlimit="10" stroke-width="6"/><path d="M90.8,24.2H12A11.91,11.91,0,0,0,0,35.9V121a11.85,11.85,0,0,0,12,11.7H90.8a11.91,11.91,0,0,0,12-11.7V35.9A11.91,11.91,0,0,0,90.8,24.2Zm-7.3,88H19.2a3,3,0,0,1-3-3,3,3,0,0,1,3-3H83.5a3,3,0,0,1,0,6Zm0-24.2H19.2a3,3,0,1,1,0-6H83.5a3,3,0,0,1,3,3A3,3,0,0,1,83.5,88Zm0-24.1H19.2a3,3,0,1,1,0-6H83.5a3,3,0,0,1,3,3A3,3,0,0,1,83.5,63.9Z" fill="#fff"/></svg>