<svg xmlns="http://www.w3.org/2000/svg" viewBox="0 0 108.8 135.7"><title>list</title><polyline points="68.5 10.5 82.6 10.5 82.6 37.8 27.2 37.8 27.2 10.5 42.3 10.5" fill="none" stroke="#fff" stroke-miterlimit="10" stroke-width="6"/><path d="M84.2,24.2h9.6a11.91,11.91,0,0,1,12,11.7V121a11.85,11.85,0,0,1-12,11.7H15A11.91,11.91,0,0,1,3,121V35.9A11.85,11.85,0,0,1,15,24.2H26" fill="none" stroke="#fff" stroke-miterlimit="10" stroke-width="6"/><path d="M38.3,12.3a18.59,18.59,0,0,1,32.2,0" fill="none" stroke="#fff" stroke-miterlimit="10" stroke-width="6"/><path d="M86.5,63.9H22.2a3,3,0,0,1-3-3h0a3,3,0,0,1,3-3H86.5a3.08,3.08,0,0,1,3,3h0A3,3,0,0,1,86.5,63.9Z" fill="#fff"/><path d="M86.5,88H22.2a3,3,0,0,1-3-3h0a3,3,0,0,1,3-3H86.5a3.08,3.08,0,0,1,3,3h0A3,3,0,0,1,86.5,88Z" fill="#fff"/><path d="M86.5,112.1H22.2a3,3,0,0,1-3-3h0a3,3,0,0,1,3-3H86.5a3.08,3.08,0,0,1,3,3h0A3,3,0,0,1,86.5,112.1Z" fill="#fff"/></svg>