<?xml version="1.0" encoding="UTF-8"?>
<svg width="30px" height="30px" viewBox="0 0 30 30" version="1.1" xmlns="http://www.w3.org/2000/svg" xmlns:xlink="http://www.w3.org/1999/xlink">
    <!-- Generator: Sketch 44.1 (41455) - http://www.bohemiancoding.com/sketch -->
    <title>Page 1</title>
    <desc>Created with Sketch.</desc>
    <defs></defs>
    <g id="Page-1" stroke="none" stroke-width="1" fill="none" fill-rule="evenodd">
        <g id="搜索话题" transform="translate(-252.000000, -181.000000)" fill="#CCCCCC">
            <path d="M272.950962,187.312616 C268.890914,183.251215 262.306663,183.251215 258.245225,187.312616 C254.183788,191.374016 254.183825,197.958267 258.245225,202.018353 C262.306041,206.079498 268.89,206.079498 272.950962,202.018791 L272.950962,202.018353 C277.012071,197.957829 277.012071,191.37387 272.951401,187.313054 C272.951401,187.312908 272.950962,187.312908 272.950962,187.312616 Z M255.982363,204.281215 C250.672546,198.969936 250.672546,190.3599 255.982363,185.048438 C261.29335,179.738621 269.902948,179.738621 275.21514,185.048438 C280.52525,190.3599 280.52525,198.9699 275.21514,204.281215 C269.902948,209.591032 261.293532,209.591032 255.9824,204.281215 L255.982363,204.281215 Z M281.388855,210.456245 C280.662826,211.181252 279.486724,211.181252 278.761279,210.456245 L276.135018,207.828669 C275.409866,207.103079 275.409866,205.927415 276.135018,205.202262 C276.860024,204.477293 278.035652,204.477293 278.761279,205.202262 L281.388855,207.828669 C282.115652,208.555466 282.115652,209.730801 281.388855,210.456245 L281.388855,210.456245 Z" id="Page-1"></path>
        </g>
    </g>
</svg>