<?xml version="1.0" encoding="UTF-8"?>
<svg width="30px" height="30px" viewBox="0 0 30 30" version="1.1" xmlns="http://www.w3.org/2000/svg" xmlns:xlink="http://www.w3.org/1999/xlink">
    <!-- Generator: Sketch 44.1 (41455) - http://www.bohemiancoding.com/sketch -->
    <title>Group 3</title>
    <desc>Created with Sketch.</desc>
    <defs></defs>
    <g id="Page-1" stroke="none" stroke-width="1" fill="none" fill-rule="evenodd">
        <g id="发帖-无内容" transform="translate(-20.000000, -774.000000)">
            <g id="Group-3" transform="translate(20.000000, 774.000000)">
                <g id="Page-1">
                    <path d="M28.6043115,20.0283171 L20.6131293,20.0283171 L24.0198609,1.65605007 C24.1574687,0.914102921 23.6675382,0.201112656 22.9255911,0.0635048679 C22.1833936,-0.0741446453 21.4706537,0.415910987 21.3330876,1.15781641 L20.1659249,7.45235049 L12.4865508,7.45235049 L13.5613769,1.65605007 C13.698943,0.914102921 13.2090125,0.201112656 12.4670654,0.0635048679 C11.7251182,-0.0739777469 11.012128,0.415910987 10.8745202,1.15781641 L9.70735744,7.45235049 L1.38529903,7.45235049 C0.630709318,7.45235049 0.018984701,8.0640751 0.018984701,8.81862309 C0.018984701,9.5732128 0.630709318,10.1849374 1.38529903,10.1849374 L9.20065369,10.1849374 L7.37541029,20.0283171 L1.58019471,20.0283171 C0.825605007,20.0283171 0.213880389,20.64 0.213880389,21.3946314 C0.213880389,22.1492211 0.825605007,22.7609458 1.58019471,22.7609458 L6.86870654,22.7609458 L5.86506259,28.1732962 C5.72749652,28.9152434 6.21742698,29.6282337 6.95937413,29.7657997 C7.04361613,29.7814465 7.12731572,29.7889569 7.21001391,29.7889569 C7.85566064,29.7889569 8.42991655,29.329235 8.55187761,28.6714882 L11.9798053,10.1849374 L19.6591377,10.1849374 L17.8338943,20.0283171 L13.4796801,20.0283171 C12.7250904,20.0283171 12.1133658,20.64 12.1133658,21.3946314 C12.1133658,22.1492211 12.7250904,22.7609458 13.4796801,22.7609458 L17.3272323,22.7609458 L16.32363,28.1732962 C16.186064,28.9152434 16.6759527,29.6282337 17.4178999,29.7657997 C17.5021419,29.7814465 17.5858832,29.7889569 17.6685396,29.7889569 C18.3141864,29.7889569 18.8884423,29.329235 19.0104033,28.6714882 L20.1063839,22.7609458 L28.6043115,22.7609458 C29.3589013,22.7609458 29.9705841,22.1492211 29.9705841,21.3946314 C29.9705841,20.64 29.3589013,20.0283171 28.6043115,20.0283171" id="Fill-1" fill="#333333"></path>
                    <path d="M26.1216551,10.1849374 L28.5584979,10.1849374 C29.3130876,10.1849374 29.9248122,9.5732128 29.9248122,8.81862309 C29.9248122,8.0640751 29.3130876,7.45235049 28.5584979,7.45235049 L26.1216551,7.45235049 C25.3670236,7.45235049 24.7553408,8.0640751 24.7553408,8.81862309 C24.7553408,9.5732128 25.3670236,10.1849374 26.1216551,10.1849374" id="Fill-3" fill="#000000"></path>
                </g>
            </g>
        </g>
    </g>
</svg>