<svg xmlns="http://www.w3.org/2000/svg" viewBox="0 0 45 45"><path fill="#D42C3A" d="M38.91 37.86c-2.9-5.2-9.147-9.14-16.41-9.14S8.99 32.66 6.09 37.86C2.322 33.835 0 28.444 0 22.5 0 10.074 10.074 0 22.5 0S45 10.074 45 22.5c0 5.945-2.323 11.336-6.09 15.36zM23.02 5c-5.73 0-10.375 4.617-10.375 10.312 0 5.696 4.645 10.313 10.374 10.313 5.728 0 10.372-4.617 10.372-10.313C33.392 9.617 28.748 5 23.02 5zm0 18.563c-4.585 0-8.3-3.694-8.3-8.25 0-4.557 3.715-8.25 8.3-8.25 4.582 0 8.297 3.693 8.297 8.25 0 4.556-3.715 8.25-8.298 8.25zM8 39c2.542-4.257 8.014-8.22 14.5-8.22 6.486 0 11.958 3.963 14.5 8.22l1.605-.804C34.518 42.388 28.817 45 22.5 45s-12.018-2.612-16.104-6.804L8 39z"/></svg>