<svg xmlns="http://www.w3.org/2000/svg" viewBox="0 0 123.2 136.6"><title>user-active</title><path d="M61.6,72A34.5,34.5,0,1,1,96.1,37.5,34.57,34.57,0,0,1,61.6,72Z" fill="#fff"/><path d="M61.6,6A31.5,31.5,0,1,1,30.1,37.5,31.5,31.5,0,0,1,61.6,6m0-6A37.5,37.5,0,1,0,99.1,37.5,37.51,37.51,0,0,0,61.6,0Z" fill="#fff"/><path d="M3,133.6a58.6,58.6,0,1,1,117.2,0" fill="#fff" stroke="#fff" stroke-linecap="round" stroke-miterlimit="10" stroke-width="6"/><line x1="3" y1="133.6" x2="119" y2="133.6" fill="none" stroke="#fff" stroke-linecap="round" stroke-miterlimit="10" stroke-width="6"/></svg>