<?xml version="1.0" encoding="UTF-8"?>
<svg width="30px" height="30px" viewBox="0 0 30 30" version="1.1" xmlns="http://www.w3.org/2000/svg" xmlns:xlink="http://www.w3.org/1999/xlink">
    <!-- Generator: Sketch 44.1 (41455) - http://www.bohemiancoding.com/sketch -->
    <title>Page 1</title>
    <desc>Created with Sketch.</desc>
    <defs></defs>
    <g id="Page-1" stroke="none" stroke-width="1" fill="none" fill-rule="evenodd">
        <g id="发帖-无内容" transform="translate(-20.000000, -658.000000)" fill="#333333">
            <g id="Group-2" transform="translate(20.000000, 658.000000)">
                <path d="M28.1639342,25.4511449 L28.1639342,18.938989 C28.1639342,18.3715834 27.6661754,17.9117174 27.0518149,17.9117174 C26.4376005,17.9117174 25.9395128,18.3715469 25.9395128,18.938989 L25.9395128,25.4961267 C25.9395128,25.5453106 25.9390378,25.5642387 25.9461267,25.6098782 C25.9520828,25.6972838 25.9767479,26.3678806 25.393447,26.941754 C24.6908404,27.6330329 23.3290378,27.9788916 21.4540195,27.942972 C21.4473691,27.942972 21.4409013,27.9426797 21.4343605,27.9426797 L21.0001096,27.9414738 C20.9436906,27.9333252 20.8857004,27.9289038 20.8265408,27.9289038 L20.8251523,27.9289038 L17.89162,27.9320828 L16.7683557,27.9289038 L16.7648477,27.9289038 C16.7293301,27.9289038 16.6941048,27.9306943 16.6593179,27.9338733 L8.63718636,27.9426797 C8.62995128,27.9426797 8.62257004,27.942972 8.61526188,27.942972 C6.74141291,27.9792205 5.3783313,27.6330329 4.67605359,26.9420463 C4.09260658,26.3676248 4.11719854,25.6973203 4.12319123,25.6099147 C4.13038977,25.5642753 4.12991474,25.5453471 4.12991474,25.4961632 L4.12991474,18.938989 C4.12991474,18.3715834 3.63193666,17.9117174 3.01757613,17.9117174 C2.40332521,17.9117174 1.90534714,18.3715469 1.90534714,18.938989 L1.90534714,25.4511449 C1.87666261,25.8060658 1.85813642,27.1311084 3.00387333,28.2974909 C4.11409257,29.4279172 5.91164434,30 8.35045067,30 C8.44951279,30 8.54959805,29.9991596 8.650743,29.9970767 L17.8882217,29.9865895 L21.4174421,29.9970767 C21.5189525,29.999123 21.6192205,30 21.7186845,30 C24.1573447,30 25.9552619,29.4279172 27.065408,28.2974909 C28.2114373,27.1311084 28.1929476,25.8060292 28.1639342,25.4511449 Z M29.8923143,10.7438733 L26.8604872,0.823775883 C26.7252862,0.381522533 26.2882582,0.0758952497 25.7908648,0.0756760049 L23.0235566,0.0741778319 C22.9779903,0.0689159562 22.9312911,0.0658465286 22.8841169,0.0658465286 L22.8833496,0.0658465286 L14.9484775,0.0700121803 L7.05065773,0.065956151 L7.05003654,0.065956151 C7.00293544,0.065956151 6.95645554,0.068952497 6.91096224,0.0741778319 L4.14350792,0.0756760049 C3.64574909,0.0758952497 3.20883069,0.381522533 3.07362972,0.823775883 L0.0418757613,10.7438733 C0.0141047503,10.8346407 0,10.9284775 0,11.0228258 C0,12.4433496 0.461948843,13.5603654 1.37298417,14.3428867 C2.49829476,15.3094275 3.91870889,15.41324 4.47544458,15.41324 C4.55002436,15.41324 4.60911084,15.4111937 4.64996346,15.4091108 C6.05221681,15.4015104 7.20986602,14.9158831 8.0062363,14.0205238 C8.80260658,14.9158831 9.96032887,15.4018027 11.3625457,15.4094032 C11.4032887,15.4111937 11.4623021,15.41324 11.537028,15.41324 C12.0937637,15.41324 13.5142509,15.3094275 14.6394884,14.3428867 C14.76,14.2393666 14.872363,14.13 14.9770158,14.0148599 C15.7736054,14.9139099 16.9332643,15.4018027 18.3383678,15.4094032 C18.3792205,15.4111937 18.4382704,15.41324 18.5129598,15.41324 C19.069659,15.41324 20.4900731,15.3094275 21.6152741,14.3428867 C21.7300487,14.2444823 21.8375152,14.1406699 21.9377467,14.0316322 C22.7342266,14.9199756 23.8878928,15.4018392 25.2844093,15.4094397 C25.3250792,15.4112302 25.3839829,15.4132765 25.458782,15.4132765 C26.0155907,15.4132765 27.4361145,15.3094641 28.5612424,14.3429233 C29.4722412,13.5604385 29.9341535,12.4433861 29.9341535,11.022972 C29.9341169,10.9286236 29.9199756,10.8346407 29.8923143,10.7438733 Z M27.0575518,12.8288185 C26.4266748,13.380877 25.4686114,13.3600487 25.393447,13.3574178 C25.3636297,13.3550792 25.3498538,13.3552253 25.3179903,13.3551888 C24.3619732,13.3551888 23.7382948,13.017296 23.3550548,12.291961 C23.0194641,11.6560414 23.006894,10.9744458 23.0067844,10.9676492 L23.0067844,10.9735688 L22.9870158,10.9735688 C22.9591717,10.4291839 22.4724848,9.99577345 21.8761754,9.99577345 C21.2618514,9.99577345 20.7638733,10.4556395 20.7638733,11.022972 C20.7638733,11.8427284 20.5444823,12.4502923 20.1116931,12.8288185 C19.4808161,13.3810597 18.5223143,13.3600487 18.4476248,13.3574178 C18.4178076,13.3550792 18.4038855,13.3552984 18.3723508,13.3551888 C17.416151,13.3551888 16.7924726,13.0173325 16.4093788,12.291961 C16.0734957,11.656078 16.0611084,10.9745554 16.0608161,10.9676492 L16.0611084,10.9735688 L16.0112667,10.9735688 C15.9833496,10.4292935 15.4966261,9.99580999 14.9002071,9.99580999 C14.2860292,9.99580999 13.7880512,10.4557125 13.7880512,11.022972 C13.7880512,11.8427284 13.5686236,12.4503289 13.1358343,12.8288916 C12.5049208,13.3810597 11.5465286,13.3600487 11.47162,13.3574543 C11.4419854,13.3551888 11.428246,13.3552984 11.3963825,13.3552253 C10.4402558,13.3552253 9.81661389,13.0173325 9.43359318,12.291961 C9.25797808,11.9596224 9.17079172,11.6146407 9.12752741,11.3602436 C9.15010962,11.1513764 9.15190012,11.0111693 9.15190012,10.9735688 L9.08514007,10.9735688 C9.08510353,10.9703898 9.08510353,10.9680512 9.08510353,10.9677588 L9.08510353,10.9735688 L6.92733252,10.9735688 L6.9274056,10.9676492 C6.9274056,10.9680512 6.92733252,10.9703898 6.9272229,10.9736419 L6.86060901,10.9736419 C6.86060901,11.0111328 6.86232643,11.1513764 6.88487211,11.3602436 C6.8416078,11.6146407 6.75442144,11.9594397 6.57887942,12.291961 C6.19578563,13.0173325 5.5720341,13.3551888 4.61605359,13.3551888 C4.58915956,13.3551888 4.56241169,13.3560292 4.5355542,13.3579294 C4.52601705,13.358514 3.53846529,13.3976127 2.8879659,12.8387576 C2.47213155,12.4816078 2.2498173,11.9167966 2.22657734,11.1584653 L4.98595615,2.12963459 L14.9492448,2.1244458 L24.9480877,2.12963459 L27.7075761,11.1584653 C27.6844458,11.9098538 27.4662241,12.4713764 27.0575518,12.8288185 L27.0575518,12.8288185 Z" id="Page-1"></path>
            </g>
        </g>
    </g>
</svg>